<?xml version="1.0" encoding="UTF-8"?>
<svg xmlns="http://www.w3.org/2000/svg" xmlns:xlink="http://www.w3.org/1999/xlink" width="35px" height="px" viewBox="0 0 35 35" version="1.1">
<g id="surface1">
<path style=" stroke:none;fill-rule:nonzero;fill:rgb(0%,0%,0%);fill-opacity:1;" d="M 33.039062 1.921875 C 31.757812 0.640625 30.214844 0 28.40625 0 L 6.554688 0 C 4.75 0 3.207031 0.640625 1.921875 1.921875 C 0.640625 3.207031 0 4.75 0 6.554688 L 0 28.40625 C 0 30.214844 0.640625 31.757812 1.921875 33.039062 C 3.207031 34.320312 4.75 34.964844 6.554688 34.964844 L 28.40625 34.964844 C 30.214844 34.964844 31.757812 34.320312 33.039062 33.039062 C 34.320312 31.757812 34.960938 30.214844 34.960938 28.40625 L 34.960938 6.554688 C 34.960938 4.75 34.320312 3.207031 33.039062 1.921875 Z M 10.652344 29.273438 L 5.394531 29.273438 L 5.394531 13.476562 L 10.652344 13.476562 Z M 10.175781 10.550781 C 9.628906 11.074219 8.90625 11.335938 8.011719 11.335938 L 7.988281 11.335938 C 7.125 11.335938 6.421875 11.074219 5.882812 10.550781 C 5.34375 10.027344 5.074219 9.378906 5.074219 8.605469 C 5.074219 7.816406 5.351562 7.164062 5.90625 6.648438 C 6.460938 6.128906 7.179688 5.871094 8.058594 5.871094 C 8.9375 5.871094 9.644531 6.128906 10.175781 6.648438 C 10.707031 7.164062 10.980469 7.816406 10.996094 8.605469 C 10.996094 9.378906 10.722656 10.027344 10.175781 10.550781 Z M 29.570312 29.273438 L 24.308594 29.273438 L 24.308594 20.828125 C 24.308594 18.445312 23.429688 17.253906 21.671875 17.253906 C 21.003906 17.253906 20.441406 17.441406 19.984375 17.8125 C 19.53125 18.183594 19.1875 18.632812 18.960938 19.167969 C 18.855469 19.4375 18.800781 19.863281 18.800781 20.441406 L 18.800781 29.273438 L 13.542969 29.273438 C 13.589844 19.742188 13.589844 14.476562 13.542969 13.476562 L 18.800781 13.476562 L 18.800781 15.707031 C 19.90625 13.976562 21.476562 13.109375 23.515625 13.109375 C 25.335938 13.109375 26.800781 13.710938 27.90625 14.910156 C 29.015625 16.109375 29.570312 17.875 29.570312 20.210938 Z M 29.570312 29.273438 "/>
</g>
</svg>
