<svg id="in" fill="#000000" xmlns="http://www.w3.org/2000/svg"  viewBox="0 0 50 50" width="35px" height="35px"><path fill="none" stroke="#000000" stroke-linecap="round" stroke-miterlimit="10" stroke-width="2" d="M25 3A22 22 0 1 0 25 47A22 22 0 1 0 25 3Z"/><path fill="none" stroke="#000000" stroke-miterlimit="10" stroke-width="2" d="M16 13A2 2 0 1 0 16 17A2 2 0 1 0 16 13Z"/><path fill="none" stroke="#000000" stroke-linejoin="round" stroke-miterlimit="10" stroke-width="2" d="M14 20H18V35H14zM30.5 20c-1.748 0-3.332.694-4.5 1.816V20h-4v15h4v-7.5c0-1.925 1.575-3.5 3.5-3.5s3.5 1.575 3.5 3.5V30v5h4v-8.5C37 22.91 34.09 20 30.5 20z"/></svg>