<?xml version="1.0" encoding="UTF-8"?>
<svg xmlns="http://www.w3.org/2000/svg" xmlns:xlink="http://www.w3.org/1999/xlink" width="35px" height="px" viewBox="0 0 35 35" version="1.1">
<g id="surface1">
<path style=" stroke:none;fill-rule:nonzero;fill:rgb(0%,0%,0%);fill-opacity:1;" d="M 21.976562 2.917969 L 13.023438 2.917969 C 4.855469 2.917969 2.917969 4.855469 2.917969 13.023438 L 2.917969 21.976562 C 2.917969 30.144531 4.855469 32.082031 13.023438 32.082031 L 21.976562 32.082031 C 30.144531 32.082031 32.082031 30.144531 32.082031 21.976562 L 32.082031 13.023438 C 32.082031 4.855469 30.144531 2.917969 21.976562 2.917969 M 26.46875 23.726562 L 24.339844 23.726562 C 23.539062 23.726562 23.289062 23.070312 21.875 21.628906 C 20.589844 20.417969 20.039062 20.242188 19.730469 20.242188 C 19.308594 20.242188 19.175781 20.359375 19.175781 20.972656 L 19.175781 22.882812 C 19.175781 23.390625 19.015625 23.710938 17.660156 23.710938 C 15.414062 23.710938 12.921875 22.339844 11.171875 19.820312 C 8.53125 16.113281 7.816406 13.316406 7.816406 12.761719 C 7.816406 12.453125 7.917969 12.164062 8.53125 12.164062 L 10.675781 12.164062 C 11.214844 12.164062 11.417969 12.394531 11.621094 12.980469 C 12.671875 16.042969 14.421875 18.667969 15.136719 18.667969 C 15.414062 18.667969 15.53125 18.535156 15.53125 17.863281 L 15.53125 14.730469 C 15.457031 13.300781 14.683594 13.167969 14.683594 12.660156 C 14.683594 12.394531 14.890625 12.164062 15.226562 12.164062 L 18.566406 12.164062 C 19.015625 12.164062 19.175781 12.394531 19.175781 12.949219 L 19.175781 17.164062 C 19.175781 17.617188 19.367188 17.777344 19.511719 17.777344 C 19.773438 17.777344 20.007812 17.617188 20.488281 17.121094 C 22.019531 15.414062 23.113281 12.773438 23.113281 12.773438 C 23.261719 12.46875 23.492188 12.175781 24.0625 12.175781 L 26.148438 12.175781 C 26.789062 12.175781 26.933594 12.511719 26.789062 12.964844 C 26.527344 14.203125 23.929688 17.863281 23.960938 17.863281 C 23.726562 18.230469 23.640625 18.390625 23.960938 18.8125 C 24.179688 19.117188 24.921875 19.761719 25.417969 20.328125 C 26.324219 21.363281 27.023438 22.226562 27.210938 22.824219 C 27.371094 23.421875 27.082031 23.726562 26.46875 23.726562 Z M 26.46875 23.726562 "/>
</g>
</svg>
