<svg id="vk" fill="#000000" xmlns="http://www.w3.org/2000/svg"  viewBox="0 0 50 50" width="35px" height="35px"><path fill="none" stroke="#000000" stroke-miterlimit="10" stroke-width="2" d="M34.973,29.535c2.237,1.986,2.702,2.695,2.778,2.816C38.678,33.821,36.723,34,36.723,34h-4.12c0,0-1.003,0.011-1.86-0.557c-1.397-0.915-2.86-2.689-3.889-2.381C25.992,31.32,26,32.486,26,33.483C26,33.84,25.693,34,25,34s-0.981,0-1.288,0c-2.257,0-4.706-0.76-7.149-3.313c-3.456-3.609-6.487-10.879-6.487-10.879s-0.179-0.366,0.016-0.589c0.221-0.25,0.822-0.218,0.822-0.218L14.909,19c0,0,0.376,0.071,0.646,0.261c0.223,0.156,0.347,0.454,0.347,0.454s0.671,2.216,1.526,3.629c1.67,2.758,2.447,2.827,3.014,2.531C21.27,25.445,21,22.513,21,22.513s0.037-1.259-0.395-1.82c-0.333-0.434-0.97-0.665-1.248-0.701c-0.225-0.029,0.151-0.423,0.63-0.648C20.627,19.059,21.498,18.986,23,19c1.169,0.011,1.506,0.081,1.962,0.186C26.341,19.504,26,20.343,26,23.289c0,0.944-0.13,2.271,0.582,2.711c0.307,0.19,1.359,0.422,3.231-2.618c0.889-1.441,1.596-3.834,1.596-3.834s0.146-0.263,0.373-0.393c0.232-0.133,0.225-0.13,0.543-0.13c0.318,0,3.507-0.025,4.207-0.025c0.699,0,1.355-0.008,1.468,0.402c0.162,0.589-0.515,2.607-2.234,4.797C32.944,27.793,32.63,27.457,34.973,29.535z"/><path fill="none" stroke="#000000" stroke-linecap="round" stroke-miterlimit="10" stroke-width="2" d="M25 3A22 22 0 1 0 25 47A22 22 0 1 0 25 3Z"/></svg>